<svg width="90" height="92" viewBox="0 0 90 92" fill="none" xmlns="http://www.w3.org/2000/svg">
<g clip-path="url(#clip0_1123_115)">
<path d="M43.4107 5.83285L50.3623 4.55592C57.5435 3.23633 64.83 6.25557 68.9744 12.2652L72.9871 18.0829L78.8048 22.0956C84.8157 26.2412 87.8337 33.5278 86.5141 40.7077L85.2371 47.6593L86.5141 54.611C87.8337 61.7921 84.8144 69.0787 78.8048 73.2231L72.9871 77.2358L68.9744 83.0535C64.8288 89.0643 57.5422 92.0823 50.3623 90.7627L43.4107 89.4858L36.459 90.7627C29.2778 92.0823 21.9913 89.0631 17.8469 83.0535L13.8342 77.2358L8.01651 73.2231C2.00439 69.08 -1.01359 61.7934 0.305988 54.6122L1.58292 47.6606L0.305988 40.7089C-1.01359 33.5278 2.00564 26.2412 8.01526 22.0968L13.833 18.0841L17.8456 12.2664C21.9913 6.25557 29.2778 3.23759 36.4578 4.55717L43.4094 5.8341L43.4107 5.83285Z" fill="black"/>
<path d="M46.5256 1.70207L53.4773 0.425133C60.6584 -0.894449 67.945 2.12479 72.0894 8.1344L76.1021 13.9521L81.9198 17.9648C87.9306 22.1104 90.9486 29.397 89.629 36.5769L88.3521 43.5285L89.629 50.4802C90.9486 57.6614 87.9294 64.9479 81.9198 69.0923L76.1021 73.105L72.0894 78.9227C67.9437 84.9336 60.6572 87.9515 53.4773 86.632L46.5256 85.355L39.574 86.632C32.3928 87.9515 25.1062 84.9323 20.9619 78.9227L16.9492 73.105L11.1315 69.0923C5.1206 64.9467 2.10262 57.6601 3.4222 50.4802L4.69914 43.5285L3.4222 36.5769C2.10262 29.3957 5.12186 22.1092 11.1315 17.9648L16.9492 13.9521L20.9619 8.1344C25.1075 2.12353 32.394 -0.894449 39.574 0.425133L46.5256 1.70207Z" fill="#FFA1CD" stroke="black" stroke-width="0.125436" stroke-miterlimit="10"/>
<path d="M44.3345 70.1397C44.0736 70.0193 43.7563 69.9365 43.385 69.8926C43.0124 69.8487 42.6863 69.8537 42.4028 69.9102C42.1206 69.9654 41.8823 70.0971 41.6879 70.304C41.4947 70.511 41.3743 70.807 41.3279 71.1934L40.9014 74.7633L42.1244 74.9088L42.5508 71.3313C42.5759 71.1169 42.6474 70.9663 42.7641 70.881C42.8807 70.7957 43.0513 70.7669 43.2759 70.7932C43.5054 70.8208 43.6635 70.8873 43.7525 70.9952C43.8416 71.1031 43.8729 71.2661 43.8466 71.4856L43.4201 75.0631L44.6368 75.2086L45.0633 71.6387C45.1097 71.2523 45.0646 70.9362 44.9304 70.6904C44.7949 70.4445 44.5967 70.2614 44.3358 70.141L44.3345 70.1397Z" fill="black"/>
<path d="M37.7344 69.7492L39.1581 70.1443L38.0718 74.0604L39.2735 74.3928L40.6219 69.5335L37.9965 68.8047L37.7344 69.7492Z" fill="black"/>
<path d="M35.3397 70.071L34.1029 69.5178L34.9822 67.551L33.8445 67.043L31.7861 71.6465L32.9238 72.1557L33.694 70.4322L34.9308 70.9854L34.1606 72.7089L35.2983 73.2182L37.3567 68.6134L36.219 68.1042L35.3397 70.071Z" fill="black"/>
<path d="M30.6393 64.9902L30.0962 65.8231L31.466 66.7162L30.8363 67.6821L29.5568 66.8479L29.0614 67.6081L30.3408 68.4422L29.7977 69.2751L28.4279 68.382L27.8848 69.2149L30.2931 70.7854L33.0477 66.5594L30.6393 64.9902Z" fill="black"/>
<path d="M29.057 63.6853L27.7775 65.1128L27.3699 64.7478C27.2984 64.6838 27.2557 64.6173 27.2419 64.5508C27.2281 64.4831 27.2382 64.4041 27.272 64.3125C27.3059 64.2209 27.3749 64.1018 27.479 63.9563L28.1864 62.9076L27.2156 62.0371L26.606 63.0193C26.4617 63.2513 26.3802 63.4583 26.3588 63.6402C26.3388 63.8221 26.3764 63.9964 26.4742 64.1645C26.547 64.2887 26.6586 64.4242 26.8092 64.5722C26.626 64.4279 26.4416 64.3288 26.2585 64.2761C26.0152 64.2059 25.7768 64.2134 25.546 64.3C25.314 64.3853 25.0894 64.5508 24.8712 64.7942C24.6404 65.0513 24.5011 65.2997 24.4522 65.5368C24.4046 65.7738 24.4359 66.0046 24.5463 66.2304C24.6567 66.4562 24.8499 66.692 25.1258 66.9391L26.6122 68.2713L29.9777 64.5145L29.0545 63.6878L29.057 63.6853ZM26.3124 66.7485L25.8722 66.3546C25.7869 66.2781 25.7304 66.1953 25.7053 66.1087C25.6802 66.0222 25.6828 65.9306 25.7129 65.8353C25.7442 65.74 25.8082 65.6371 25.9073 65.5255C26.0766 65.3361 26.2334 65.2282 26.3764 65.2006C26.5194 65.173 26.6611 65.2232 26.8004 65.3486L27.2244 65.7287L26.3112 66.7485H26.3124Z" fill="black"/>
<path d="M24.8939 59.2266L24.125 59.8575L25.1624 61.1219L24.2705 61.8532L23.3022 60.6716L22.5997 61.2473L23.5681 62.4289L22.7992 63.0586L21.7631 61.7942L20.9941 62.4239L22.8167 64.6479L26.7165 61.4505L24.8939 59.2266Z" fill="black"/>
<path d="M21.9071 60.0411C22.0024 59.8128 22.0463 59.582 22.0388 59.3499C22.0313 59.1166 22.0012 58.8357 21.951 58.5083C21.9146 58.2787 21.8945 58.0968 21.8933 57.9639C21.892 57.8309 21.9134 57.7017 21.956 57.5775C21.9999 57.4534 22.0764 57.358 22.1881 57.2915C22.3198 57.2125 22.4515 57.1925 22.5844 57.2313C22.7161 57.2702 22.8328 57.3731 22.9344 57.5424C23.0159 57.6779 23.0523 57.8071 23.0423 57.9263C23.0335 58.0467 22.9846 58.1608 22.898 58.2687C22.8115 58.3766 22.6823 58.4844 22.5117 58.5923L23.1338 59.6309C23.48 59.3964 23.7259 59.1543 23.8702 58.9047C24.0144 58.655 24.0696 58.3879 24.0357 58.1006C24.0019 57.8134 23.8777 57.4922 23.6657 57.1385C23.4361 56.7559 23.1966 56.4787 22.9469 56.3094C22.6973 56.1401 22.4502 56.0585 22.2044 56.0648C21.9598 56.0711 21.7152 56.1476 21.4718 56.2931C21.1959 56.4587 21.0102 56.6543 20.9136 56.8826C20.8183 57.1109 20.7744 57.3392 20.7807 57.5663C20.7882 57.7945 20.8208 58.073 20.8785 58.4029C20.9086 58.6312 20.9249 58.8143 20.9262 58.9536C20.9287 59.0928 20.9086 59.2207 20.866 59.3374C20.8246 59.4541 20.7481 59.5469 20.6364 59.6134C20.5499 59.6648 20.4658 59.6962 20.3843 59.7049C20.3028 59.7137 20.225 59.6924 20.1485 59.6397C20.072 59.587 20.0005 59.5055 19.934 59.3938C19.8575 59.2659 19.8198 59.153 19.8223 59.0527C19.8249 58.9536 19.8688 58.852 19.9541 58.7466C20.0394 58.6425 20.1773 58.5283 20.3655 58.4042L19.7621 57.3957C19.4072 57.6352 19.1575 57.8824 19.0133 58.137C18.869 58.3916 18.8151 58.6563 18.8502 58.931C18.8866 59.2057 19.0007 59.5042 19.1927 59.8253C19.4097 60.1879 19.6417 60.4525 19.8888 60.6181C20.1359 60.7837 20.3843 60.8602 20.6314 60.8489C20.8798 60.8376 21.1194 60.7636 21.3502 60.6244C21.6223 60.4613 21.8067 60.2656 21.9021 60.0386L21.9071 60.0411Z" fill="black"/>
<path d="M20.6806 50.457L19.7373 50.7719L20.2554 52.3235L19.1628 52.6885L18.6786 51.2397L17.8169 51.5283L18.3011 52.977L17.3578 53.2919L16.8398 51.7402L15.8965 52.0551L16.8084 54.7821L21.5913 53.184L20.6806 50.457Z" fill="black"/>
<path d="M20.2418 48.5477L16.4185 49.0971L16.411 49.0407L20.1427 47.8628L19.9621 46.6072L16.0397 46.5169L16.0322 46.4605L19.8617 45.9086L19.6874 44.7031L14.6963 45.4219L14.9672 47.3122L18.798 47.39L15.1366 48.4812L15.4188 50.4431L20.4099 49.7243L20.2418 48.5477Z" fill="black"/>
<path d="M20.0041 39.9856C20.0605 39.5378 20.0179 39.1627 19.8749 38.8617C19.7319 38.5606 19.4848 38.3198 19.1348 38.1391C18.7848 37.9585 18.317 37.8318 17.7312 37.7578C17.1542 37.6851 16.6763 37.6901 16.2949 37.7754C15.9136 37.8607 15.6176 38.0325 15.4056 38.2909C15.1936 38.5493 15.0594 38.903 15.0017 39.3509L14.7471 41.3516L19.7507 41.9875L20.0053 39.9868L20.0041 39.9856ZM19.0922 40.0658L19.0194 40.6378L15.7882 40.2276L15.8609 39.6557C15.886 39.46 15.9538 39.3082 16.0641 39.1978C16.1745 39.0887 16.3514 39.0159 16.5922 38.9821C16.8343 38.947 17.1617 38.957 17.5769 39.0097C17.9871 39.0624 18.3069 39.1339 18.5377 39.2267C18.7685 39.3182 18.9241 39.4336 19.0056 39.5729C19.0871 39.7121 19.116 39.8764 19.0922 40.0671V40.0658Z" fill="black"/>
<path d="M20.7007 36.454L19.755 35.9724L20.0798 34.8949L21.1335 35.0191L21.5035 33.7911L16.3544 33.3984L15.8301 35.137L20.3307 37.6821L20.7007 36.454ZM18.907 35.5396L17.0481 34.5926L17.0644 34.5374L19.1353 34.782L18.907 35.5396Z" fill="black"/>
<path d="M22.6596 31.3748C22.8616 30.9709 22.9444 30.6034 22.9092 30.271C22.8741 29.9386 22.7211 29.63 22.4501 29.344C22.1792 29.058 21.7803 28.7833 21.2522 28.5187C20.7329 28.259 20.2788 28.106 19.8913 28.0596C19.5037 28.0131 19.1662 28.0771 18.8815 28.2515C18.5955 28.4258 18.3522 28.7143 18.1502 29.1182L17.2471 30.922L21.7577 33.1786L22.6609 31.3748H22.6596ZM18.6018 30.2083L18.8602 29.6927C18.948 29.5171 19.0634 29.3954 19.2039 29.329C19.3444 29.2625 19.535 29.2524 19.7746 29.3001C20.0142 29.3478 20.3202 29.4644 20.694 29.6513C21.0641 29.8357 21.3413 30.0101 21.5282 30.1731C21.7151 30.3362 21.8242 30.4968 21.8556 30.6548C21.8869 30.8129 21.8593 30.9772 21.7728 31.149L21.5144 31.6646L18.6018 30.2083Z" fill="black"/>
<path d="M21.8598 27.5507C22.3515 27.9195 22.7956 28.1603 23.192 28.2732C23.5871 28.3861 23.9471 28.3723 24.2695 28.2331C24.5931 28.0938 24.8991 27.8304 25.1902 27.4416C25.4812 27.0527 25.6467 26.6839 25.6894 26.3352C25.732 25.9865 25.643 25.6378 25.4235 25.2903C25.2039 24.9429 24.8477 24.5841 24.3547 24.2166C23.863 23.8478 23.4203 23.6083 23.0264 23.4966C22.6325 23.385 22.2738 23.3988 21.9489 23.5355C21.624 23.6735 21.3154 23.9369 21.0257 24.3245C20.7347 24.7133 20.5691 25.0821 20.529 25.4333C20.4888 25.7846 20.5766 26.132 20.7949 26.4782C21.0131 26.8244 21.3681 27.1819 21.8598 27.5494V27.5507ZM21.7457 24.8651C21.8661 24.7033 22.0041 24.6067 22.1571 24.5741C22.3102 24.5415 22.5008 24.5779 22.7291 24.682C22.9574 24.7861 23.2459 24.9705 23.5959 25.2314C23.9534 25.4986 24.213 25.7269 24.3761 25.9138C24.5379 26.1019 24.6244 26.2725 24.6357 26.4268C24.6458 26.5811 24.5906 26.7391 24.4702 26.9009C24.3522 27.059 24.2168 27.1556 24.0637 27.1907C23.9107 27.2258 23.7213 27.1932 23.4955 27.0891C23.2697 26.9862 22.9775 26.8006 22.62 26.5334C22.2662 26.2687 22.0078 26.043 21.8448 25.8548C21.683 25.6679 21.5952 25.4948 21.5851 25.3368C21.5751 25.1787 21.6278 25.0207 21.7457 24.8639V24.8651Z" fill="black"/>
<path d="M24.3123 22.5519C24.5293 22.7827 24.7601 22.9194 25.0035 22.9633C25.2468 23.0072 25.4814 23.001 25.7072 22.942C25.933 22.8843 26.2001 22.7952 26.51 22.6748C26.7257 22.5895 26.9001 22.5306 27.0293 22.5005C27.1597 22.4704 27.2889 22.4628 27.4194 22.4779C27.5498 22.4942 27.659 22.5481 27.748 22.6422C27.8534 22.7538 27.901 22.878 27.8923 23.016C27.8835 23.154 27.807 23.2895 27.664 23.4249C27.5486 23.5341 27.4319 23.5968 27.3128 23.6143C27.1936 23.6319 27.0719 23.6093 26.9477 23.5478C26.8236 23.4864 26.6906 23.3848 26.5488 23.2405L25.6695 24.0722C25.9744 24.3594 26.2629 24.5463 26.5376 24.6341C26.8123 24.7219 27.0857 24.7182 27.3592 24.6216C27.6314 24.5262 27.9186 24.3356 28.2184 24.0521C28.5433 23.746 28.7615 23.4513 28.8732 23.1715C28.9848 22.8906 29.0111 22.6322 28.9509 22.3938C28.8907 22.1555 28.764 21.9347 28.5696 21.7278C28.3488 21.4945 28.1168 21.3552 27.8734 21.3101C27.6301 21.2649 27.398 21.2724 27.1773 21.3289C26.9565 21.3853 26.6918 21.4769 26.382 21.6049C26.1663 21.6839 25.9907 21.7391 25.8552 21.7704C25.7197 21.8018 25.5905 21.8106 25.4676 21.7955C25.3434 21.7805 25.238 21.7253 25.149 21.6312C25.08 21.5584 25.0323 21.4832 25.0047 21.4054C24.9784 21.3289 24.9822 21.2474 25.0173 21.1608C25.0524 21.0743 25.1164 20.9877 25.2105 20.8987C25.3183 20.797 25.4212 20.7356 25.519 20.7155C25.6169 20.6967 25.726 20.718 25.8464 20.7782C25.9668 20.8397 26.1086 20.9488 26.2704 21.1069L27.1246 20.3003C26.8135 20.0068 26.5175 19.8161 26.239 19.7296C25.9593 19.643 25.6896 19.6481 25.4287 19.7421C25.1678 19.8362 24.9019 20.0131 24.6284 20.2702C24.3211 20.56 24.1141 20.8447 24.005 21.1219C23.8971 21.3991 23.8746 21.6575 23.9398 21.8971C24.0038 22.1367 24.1292 22.355 24.3136 22.5506L24.3123 22.5519Z" fill="black"/>
<path d="M33.663 16.7657L31.8506 17.7148L32.2818 18.5382L34.0942 17.5891L33.663 16.7657Z" fill="black"/>
<path d="M49.2554 16.7711C49.5138 16.8978 49.8287 16.9869 50.2 17.0383C50.5712 17.091 50.8986 17.0922 51.1821 17.0421C51.4656 16.9932 51.7064 16.8665 51.9046 16.6633C52.1028 16.4601 52.2295 16.1665 52.2834 15.7814L52.7839 12.2216L51.5634 12.0497L51.0617 15.6171C51.0316 15.8316 50.9576 15.9796 50.8384 16.0624C50.7205 16.1452 50.5487 16.1703 50.3254 16.1389C50.0971 16.1063 49.9391 16.0361 49.8538 15.927C49.7672 15.8178 49.7396 15.6535 49.7697 15.4352L50.2715 11.8679L49.0585 11.6973L48.558 15.2571C48.5041 15.6422 48.5417 15.9596 48.6709 16.2079C48.8014 16.4563 48.9958 16.6444 49.2542 16.7699L49.2554 16.7711Z" fill="black"/>
<path d="M55.849 17.3L54.4354 16.8748L55.6032 12.9825L54.409 12.625L52.959 17.4555L55.568 18.2382L55.849 17.3Z" fill="black"/>
<path d="M58.2541 17.0314L59.4784 17.6109L58.5577 19.5589L59.6854 20.0908L61.8403 15.5312L60.7139 14.9993L59.9074 16.7053L58.6819 16.127L59.4897 14.4198L58.362 13.8867L56.207 18.4463L57.3334 18.9794L58.2541 17.0314Z" fill="black"/>
<path d="M62.7037 19.5126L63.9656 20.3744L64.4774 19.6242L63.2155 18.7625L63.7762 17.9422L65.1271 18.8641L65.6866 18.0425L63.3133 16.4219L60.4697 20.5876L62.8442 22.2082L63.4049 21.3866L62.054 20.4647L62.7037 19.5126Z" fill="black"/>
<path d="M65.7078 22.149L66.1079 22.5228C66.1782 22.588 66.2196 22.6545 66.2321 22.7222C66.2447 22.79 66.2321 22.869 66.197 22.9606C66.1606 23.0521 66.0891 23.1688 65.9813 23.3118L65.2512 24.3454L66.2033 25.236L66.8342 24.2664C66.9822 24.0368 67.0688 23.8324 67.0939 23.6505C67.1177 23.4698 67.0838 23.2942 66.9897 23.1236C66.9208 22.9982 66.8116 22.8602 66.6636 22.7097C66.8442 22.8577 67.0261 22.9606 67.208 23.017C67.4501 23.0923 67.6884 23.0898 67.9217 23.0082C68.155 22.928 68.3833 22.7674 68.6066 22.5291C68.8424 22.277 68.9879 22.0324 69.0406 21.7953C69.0946 21.5595 69.0682 21.3274 68.9616 21.0991C68.855 20.8721 68.6668 20.6312 68.3971 20.3791L66.9396 19.0156L63.4951 22.6997L64.4008 23.5464L65.7091 22.1465L65.7078 22.149ZM67.2093 20.5434L67.6408 20.9473C67.7248 21.0264 67.7787 21.1091 67.8026 21.1969C67.8264 21.2848 67.8214 21.3763 67.7888 21.4704C67.7562 21.5645 67.6897 21.6673 67.5868 21.7752C67.4125 21.9609 67.2544 22.0662 67.1102 22.0901C66.9659 22.1139 66.8267 22.0612 66.69 21.9333L66.2748 21.5444L67.2093 20.5447V20.5434Z" fill="black"/>
<path d="M68.4634 28.0898L69.2461 27.4764L68.2363 26.1894L69.1432 25.4769L70.0865 26.6786L70.8002 26.1179L69.857 24.9175L70.6397 24.3029L71.6495 25.5898L72.4309 24.9764L70.656 22.7148L66.6885 25.8282L68.4634 28.0898Z" fill="black"/>
<path d="M71.4715 27.3442C71.3712 27.5699 71.3223 27.7995 71.3248 28.0328C71.3273 28.2661 71.3511 28.5471 71.395 28.8757C71.4264 29.1065 71.4427 29.2884 71.4414 29.4214C71.4402 29.5543 71.4163 29.6823 71.3699 29.8065C71.3235 29.9294 71.2445 30.0222 71.1316 30.0874C70.9974 30.1639 70.8657 30.1815 70.734 30.1401C70.6023 30.0987 70.4881 29.9921 70.3903 29.8215C70.3113 29.6835 70.2786 29.5543 70.2899 29.4352C70.3012 29.3147 70.3527 29.2019 70.4405 29.0965C70.5295 28.9899 70.66 28.8845 70.8331 28.7816L70.2335 27.7292C69.8823 27.9575 69.6314 28.1934 69.4809 28.4405C69.3303 28.6863 69.2701 28.9535 69.299 29.2407C69.3278 29.528 69.4445 29.8516 69.649 30.2104C69.8697 30.5979 70.1043 30.8802 70.3501 31.0545C70.596 31.2289 70.8418 31.3154 71.0877 31.3142C71.3323 31.3129 71.5782 31.2414 71.8253 31.1009C72.105 30.9416 72.2944 30.7485 72.396 30.5227C72.4963 30.2969 72.5453 30.0699 72.5428 29.8416C72.5402 29.6133 72.5139 29.3348 72.4637 29.0037C72.4386 28.7754 72.4261 28.591 72.4274 28.4517C72.4274 28.3125 72.4512 28.1858 72.4951 28.0692C72.539 27.9525 72.618 27.8622 72.7309 27.7982C72.8187 27.7481 72.9028 27.7192 72.9843 27.7117C73.0658 27.7042 73.1436 27.7267 73.2189 27.7819C73.2941 27.8359 73.3631 27.9186 73.4271 28.0315C73.5011 28.1607 73.535 28.2749 73.5312 28.374C73.5262 28.4731 73.481 28.5747 73.392 28.6763C73.3042 28.7791 73.1637 28.8908 72.973 29.0099L73.5538 30.0297C73.9138 29.7977 74.1684 29.5556 74.3177 29.3047C74.4669 29.0538 74.5272 28.7904 74.497 28.5145C74.4669 28.2385 74.3591 27.9375 74.1734 27.6126C73.9639 27.2451 73.7382 26.9766 73.4936 26.806C73.2502 26.6354 73.0044 26.5527 72.756 26.5589C72.5076 26.5652 72.2668 26.6342 72.0335 26.7671C71.7588 26.9239 71.5694 27.1159 71.469 27.3416L71.4715 27.3442Z" fill="black"/>
<path d="M72.4916 36.95L73.4412 36.6552L72.9557 35.0935L74.0571 34.7511L74.5099 36.2099L75.3779 35.9402L74.9238 34.4814L75.8734 34.1866L76.3588 35.7483L77.3084 35.4535L76.4554 32.709L71.6387 34.2054L72.4916 36.95Z" fill="black"/>
<path d="M72.8878 38.8652L76.7224 38.4061L76.7287 38.4625L72.9706 39.5526L73.1211 40.8119L77.0397 40.9938L77.0473 41.0515L73.2052 41.5131L73.3507 42.7211L78.3581 42.1202L78.131 40.2249L74.3027 40.0568L77.9893 39.0521L77.7535 37.084L72.7461 37.6848L72.8878 38.8652Z" fill="black"/>
<path d="M72.9127 47.4273C72.8437 47.8739 72.8776 48.2489 73.0118 48.5537C73.1473 48.8585 73.3869 49.1056 73.7318 49.2951C74.0768 49.4845 74.5421 49.6237 75.1254 49.714C75.6999 49.8018 76.1791 49.8093 76.5616 49.7341C76.9442 49.6601 77.2465 49.4958 77.4648 49.2424C77.683 48.989 77.8273 48.639 77.8963 48.1937L78.2036 46.1993L73.2188 45.4316L72.9127 47.4261V47.4273ZM73.8259 47.3709L73.9137 46.8014L77.1324 47.2969L77.0446 47.8663C77.0145 48.0608 76.943 48.2113 76.8288 48.3179C76.7147 48.4245 76.5366 48.491 76.2945 48.5199C76.0524 48.5475 75.7237 48.5299 75.3111 48.4672C74.9021 48.4045 74.5848 48.3242 74.3565 48.2251C74.1282 48.126 73.9752 48.0068 73.8974 47.8663C73.8196 47.7259 73.7945 47.5603 73.8246 47.3709H73.8259Z" fill="black"/>
<path d="M72.122 50.9433L73.0553 51.45L72.7016 52.5188L71.6517 52.3657L71.249 53.5837L76.3856 54.1156L76.9563 52.3921L72.526 49.7266L72.1233 50.9445L72.122 50.9433ZM73.8907 51.9054L75.7233 52.9026L75.7057 52.9578L73.6423 52.6567L73.8907 51.9054Z" fill="black"/>
<path d="M70.0289 55.9706C69.8169 56.3695 69.7241 56.7345 69.7505 57.0669C69.7781 57.3993 69.9223 57.7117 70.1857 58.0052C70.4491 58.2975 70.8417 58.5835 71.3623 58.8607C71.8753 59.1341 72.3244 59.2984 72.712 59.3549C73.0983 59.4113 73.437 59.3549 73.7268 59.1893C74.0165 59.0225 74.2674 58.7403 74.4806 58.3414L75.4289 56.5614L70.9785 54.1895L70.0302 55.9694L70.0289 55.9706ZM74.0542 57.2413L73.7832 57.7506C73.6904 57.9249 73.5725 58.0428 73.4307 58.1056C73.2877 58.1683 73.0983 58.1733 72.86 58.1194C72.6217 58.0654 72.3181 57.9412 71.9493 57.7443C71.5843 57.5499 71.3109 57.368 71.129 57.2012C70.9459 57.0331 70.8417 56.87 70.8142 56.7107C70.7866 56.5527 70.8192 56.3883 70.9082 56.2177L71.1792 55.7097L74.0542 57.2413Z" fill="black"/>
<path d="M70.7348 59.8078C70.2506 59.4289 69.8128 59.1781 69.419 59.0564C69.0263 58.9347 68.6663 58.9397 68.3402 59.0714C68.0141 59.2032 67.7005 59.4603 67.402 59.8416C67.1022 60.2229 66.9278 60.588 66.8776 60.9367C66.8275 61.2854 66.909 61.6353 67.121 61.9878C67.333 62.3403 67.6817 62.7053 68.1659 63.0854C68.65 63.4642 69.0878 63.7138 69.4779 63.8342C69.8693 63.9547 70.228 63.9496 70.5567 63.8192C70.8853 63.6887 71.1976 63.4328 71.4974 63.0503C71.7972 62.6677 71.9703 62.3027 72.018 61.9527C72.0669 61.6027 71.9854 61.2528 71.7746 60.9015C71.5639 60.5503 71.2177 60.1853 70.7335 59.8065L70.7348 59.8078ZM70.7887 62.4958C70.6645 62.6551 70.5253 62.748 70.371 62.7768C70.2167 62.8057 70.0273 62.7655 69.8015 62.6564C69.5757 62.5473 69.291 62.3579 68.9473 62.0882C68.5961 61.8135 68.3402 61.5789 68.1822 61.3882C68.0241 61.1963 67.9413 61.0232 67.9338 60.8689C67.9275 60.7146 67.9865 60.5579 68.1107 60.3986C68.2323 60.243 68.3691 60.1502 68.5233 60.1176C68.6764 60.085 68.8658 60.1226 69.0891 60.2305C69.3123 60.3383 69.5996 60.5303 69.9521 60.8062C70.2995 61.0784 70.5529 61.3105 70.7109 61.5024C70.869 61.693 70.9518 61.8687 70.9593 62.0267C70.9668 62.1848 70.9091 62.3415 70.7875 62.4971L70.7887 62.4958Z" fill="black"/>
<path d="M68.1849 64.741C67.9716 64.5064 67.7433 64.3659 67.5 64.317C67.2579 64.2681 67.0221 64.2718 66.7963 64.3258C66.5693 64.3797 66.3008 64.465 65.9885 64.5804C65.7702 64.6619 65.5971 64.7171 65.4654 64.746C65.335 64.7736 65.2045 64.7786 65.0741 64.761C64.9436 64.7435 64.8357 64.687 64.7479 64.5904C64.6438 64.4776 64.5974 64.3521 64.6087 64.2141C64.62 64.0762 64.699 63.9419 64.8433 63.809C64.9599 63.7024 65.0791 63.6409 65.1983 63.6258C65.3187 63.6108 65.4391 63.6346 65.562 63.6986C65.6849 63.7613 65.8166 63.8667 65.9559 64.0122L66.849 63.1956C66.5492 62.9033 66.2632 62.7102 65.9898 62.6186C65.7163 62.5258 65.4429 62.5258 65.1681 62.6173C64.8934 62.7089 64.6037 62.8933 64.2989 63.1718C63.969 63.4728 63.7457 63.7626 63.6291 64.041C63.5124 64.3195 63.4823 64.5779 63.5375 64.8175C63.5927 65.0558 63.7169 65.2803 63.9075 65.4898C64.1245 65.7269 64.3541 65.8699 64.5962 65.9188C64.8395 65.9677 65.0716 65.9652 65.2923 65.9125C65.5144 65.8599 65.7803 65.7721 66.0926 65.6504C66.3096 65.5751 66.4865 65.5224 66.6232 65.4936C66.7587 65.4647 66.8879 65.4585 67.0108 65.476C67.1337 65.4936 67.2391 65.55 67.3269 65.6454C67.3946 65.7194 67.441 65.7959 67.4674 65.8737C67.4925 65.9514 67.4874 66.033 67.4511 66.117C67.4147 66.2023 67.3482 66.2876 67.2529 66.3754C67.1425 66.4757 67.0396 66.5347 66.9418 66.5523C66.844 66.5698 66.7348 66.5472 66.6157 66.4845C66.4965 66.4218 66.3573 66.3089 66.1967 66.1496L65.33 66.9411C65.636 67.2409 65.9283 67.4353 66.2055 67.5269C66.484 67.6172 66.7537 67.6185 67.0171 67.5269C67.2792 67.4366 67.5489 67.266 67.8261 67.0126C68.1385 66.7279 68.3504 66.4469 68.4633 66.1722C68.5762 65.8975 68.6026 65.6391 68.5411 65.3983C68.4809 65.1574 68.3592 64.9379 68.1786 64.7385L68.1849 64.741Z" fill="black"/>
<path d="M60.157 68.6656L58.3145 69.5547L58.7184 70.3918L60.5609 69.5027L60.157 68.6656Z" fill="black"/>
<path d="M56.2914 51.7885C56.0105 51.6568 55.7057 51.5715 55.4121 51.4724C55.0948 51.3645 54.7774 51.2566 54.4601 51.1488C53.8254 50.933 53.1907 50.7173 52.556 50.5015C51.6403 50.1904 50.7246 49.8794 49.8089 49.5683C49.5556 49.4817 49.3022 49.3964 49.0488 49.3099C49.0337 48.9424 49.0187 48.5736 49.0024 48.206C48.971 47.4898 48.9259 46.7686 48.7051 46.0812C48.5057 45.4615 48.1331 44.9272 47.6138 44.5346C46.579 43.7518 45.2556 43.4746 44.0264 43.1247C42.7607 42.7647 41.4951 42.4047 40.2294 42.0447C38.5724 41.573 36.9142 41.1014 35.2572 40.6297C33.9727 40.2647 32.6882 39.8985 31.4038 39.5334C31.1341 39.4569 30.8644 39.3792 30.5935 39.3026C29.8333 39.0894 29.0092 39.5673 28.9314 40.3927C28.8687 41.2243 28.8411 42.0572 28.8374 42.8901C28.8298 44.6123 28.9176 46.3346 28.9528 48.0568C28.9691 48.8433 28.9427 49.6348 29.0004 50.42C29.0481 51.086 29.1698 51.7734 29.4984 52.363C30.1958 53.6111 31.6986 54.0413 32.9529 54.5042C34.5949 55.11 36.2368 55.7159 37.8788 56.3217C39.5207 56.9276 41.1627 57.5334 42.8046 58.1393C43.625 58.4416 44.4466 58.7451 45.2669 59.0474C46.0082 59.3209 46.7471 59.6345 47.5047 59.8615C47.9726 60.002 48.4781 60.1036 48.9158 59.9669C49.0839 59.9142 49.2319 59.8076 49.331 59.6282C49.3636 59.568 49.3862 59.504 49.4038 59.4375C49.6647 59.2105 49.9256 58.9835 50.1852 58.7564C51.8234 57.3302 53.4616 55.904 55.0986 54.4778C55.3532 54.2571 55.6066 54.035 55.8612 53.8143C56.1008 53.606 56.3642 53.4079 56.5825 53.1771C56.7957 52.9525 56.9249 52.659 56.8321 52.3492C56.7543 52.0895 56.5273 51.9014 56.2902 51.7897L56.2914 51.7885ZM36.1064 49.8919C35.8931 49.547 35.7765 49.1644 35.7802 48.778C35.8643 48.8069 35.9609 48.7893 36.0349 48.7241C36.2343 48.5485 36.4149 48.3929 36.6156 48.26C36.7423 48.1759 36.8402 48.1208 36.9367 48.0806C36.9857 48.0605 37.0371 48.043 37.0923 48.0292C37.1036 48.0267 37.1136 48.0242 37.1224 48.0229C37.1199 48.0643 37.1073 48.1145 37.1023 48.1371C37.0772 48.2437 37.0358 48.3516 36.9643 48.4883C36.8427 48.7241 36.7097 48.9737 36.5629 49.2045C36.4889 49.3212 36.4112 49.4353 36.3334 49.5495C36.2569 49.6611 36.1804 49.7765 36.1064 49.8932V49.8919ZM40.8478 49.7213C40.5129 50.8791 39.1231 51.4937 37.742 51.0948C37.214 50.9418 36.7662 50.6621 36.43 50.3121L36.4425 50.2908C36.6357 49.996 36.8853 49.7339 37.1274 49.4805C37.1939 49.4115 37.2604 49.3425 37.3256 49.2723L37.3833 49.2095C37.658 48.9148 37.9427 48.6087 38.2726 48.3654C38.2827 48.3578 38.2914 48.3516 38.3015 48.344L38.161 48.6752C38.0832 48.8596 38.0055 49.044 37.9264 49.2283L37.8788 49.3387C37.7634 49.6084 37.6442 49.8869 37.5012 50.1453L37.4661 50.2093L37.4749 50.2143C37.4485 50.3297 37.5137 50.4338 37.6041 50.484C37.6429 50.5053 37.6868 50.5178 37.7308 50.5178C37.7859 50.5178 37.8424 50.499 37.8875 50.4551L37.8976 50.4601L37.9352 50.3924C38.1347 50.0324 38.3642 49.6686 38.6163 49.3086C38.7531 49.1129 38.9186 48.9286 39.1206 48.7454C39.2272 48.6488 39.3188 48.5736 39.4066 48.5096C39.4517 48.477 39.4981 48.4456 39.5458 48.4168C39.5609 48.408 39.5759 48.3992 39.591 48.3917L39.6135 48.3804C39.6135 48.3804 39.6186 48.3779 39.6211 48.3766H39.6236C39.6424 48.3679 39.6612 48.3616 39.6788 48.3566C39.6524 48.4406 39.611 48.5196 39.5659 48.6037C39.5471 48.6388 39.5295 48.6739 39.5119 48.709C39.4743 48.7843 39.4417 48.8621 39.4078 48.9411C39.389 48.985 39.3702 49.0289 39.3514 49.0716C39.2473 49.3036 39.1381 49.572 39.1607 49.8292C39.1733 49.9722 39.236 50.0964 39.3363 50.1779C39.4304 50.2544 39.5471 50.287 39.6763 50.272C39.8519 50.2519 39.9936 50.1628 40.1328 50.075C40.2407 50.0073 40.3473 49.9383 40.454 49.8693C40.5932 49.779 40.7337 49.6887 40.8742 49.5996C40.8654 49.641 40.8579 49.6812 40.8466 49.7226L40.8478 49.7213ZM40.8102 49.049C40.622 49.1669 40.4339 49.2873 40.247 49.409C40.1617 49.4642 40.0764 49.5194 39.9911 49.5733C39.9622 49.5909 39.9347 49.6109 39.9058 49.6297C39.8305 49.6812 39.7515 49.7339 39.675 49.7627L39.6587 49.7677C39.6587 49.7677 39.6574 49.7677 39.6562 49.7677C39.6562 49.7251 39.6675 49.6812 39.6788 49.6335C39.734 49.3964 39.8418 49.1707 39.9359 48.9725C39.9572 48.9286 39.9811 48.8821 40.0062 48.8357C40.1178 48.625 40.2457 48.3867 40.173 48.1371C40.1429 48.0342 40.0789 47.9527 39.9886 47.9037C39.8682 47.8385 39.7051 47.8297 39.542 47.8787C39.3112 47.9489 39.1243 48.0932 38.9211 48.2625C38.8935 48.2851 38.8659 48.3089 38.8396 48.3315C38.871 48.2274 38.8848 48.122 38.8597 48.0054C38.8346 47.8849 38.7643 47.7921 38.6627 47.7419C38.5536 47.6893 38.4219 47.6918 38.3015 47.7507C38.1999 47.7996 38.1083 47.8686 38.0205 47.9364L37.9854 47.9627C37.875 48.0455 37.7709 48.1295 37.6743 48.2123C37.6417 48.2399 37.6103 48.2688 37.5777 48.2976C37.6404 48.0781 37.6618 47.8097 37.4686 47.6366C37.1675 47.3669 36.6959 47.6328 36.5178 47.7344C36.2832 47.8674 36.0662 48.0392 35.8756 48.2023C36.2481 47.0922 37.6053 46.5114 38.955 46.9015C40.0551 47.2201 40.814 48.0869 40.908 49.0126C40.8754 49.0176 40.8428 49.0289 40.8089 49.049H40.8102ZM56.0105 52.6879C55.5627 53.1219 55.0659 53.5132 54.5968 53.9221C53.6372 54.7575 52.6764 55.5942 51.7168 56.4296C51.1937 56.8849 50.6719 57.3403 50.1489 57.7956C49.9055 58.0076 49.6622 58.2196 49.4201 58.4303C49.3511 56.752 49.2821 55.0724 49.2144 53.3941C49.1692 52.3003 49.1253 51.2065 49.0814 50.1127C49.3348 50.1992 49.5882 50.2845 49.8416 50.3711C51.6441 50.9832 53.4466 51.5953 55.2478 52.2074C55.4899 52.2902 55.7571 52.3504 55.9829 52.4721C56.0205 52.4922 56.1183 52.5461 56.1183 52.5725C56.1183 52.575 56.0331 52.6665 56.0117 52.6879H56.0105Z" fill="black"/>
<path d="M61.2381 42.4774C60.7602 41.3585 60.0941 40.3261 59.3553 39.364C58.708 38.5224 57.9441 37.7735 57.3283 36.908C57.0372 36.4991 56.7738 36.0601 56.6321 35.5759C56.4615 34.9989 56.3938 34.3855 56.3185 33.7909C56.1604 32.5353 55.9873 31.3123 55.4806 30.1433C55.0604 29.1724 54.4508 28.2605 53.6517 27.5618C52.8076 26.823 51.774 26.3476 50.6751 26.1369C48.5503 25.7292 46.3138 26.172 44.3695 27.0714C42.6071 27.8854 41.0241 29.1937 40.0896 30.916C39.8601 31.3399 39.6607 31.7915 39.5202 32.2544C39.3684 32.7574 39.3646 33.3695 39.8363 33.7056C39.8375 33.7056 39.8388 33.7082 39.8413 33.7082C39.7384 35.6185 39.2593 37.5553 39.401 39.4669C39.3834 39.507 39.3722 39.5509 39.3696 39.5999C39.3508 40.0665 39.2229 40.5068 39.0322 40.9232C39.544 41.0687 40.0558 41.2142 40.5676 41.3597C40.4998 41.1628 40.4396 40.9621 40.3844 40.7614C40.3468 40.6209 40.3117 40.4792 40.2791 40.3374C39.8676 38.3957 40.3769 36.3624 40.5462 34.4144C40.56 34.2513 40.5713 34.087 40.5814 33.9239C40.9087 33.939 41.2524 33.8875 41.5409 33.8512C42.0916 33.7809 42.6297 33.658 43.1553 33.4786C43.8954 33.2252 44.6103 32.8953 45.3128 32.5516C45.8672 32.2807 46.4241 32.0123 46.9648 31.7162C48.0285 32.9932 49.2101 34.1685 50.4958 35.2209C51.1869 35.7866 51.9057 36.3109 52.642 36.8152C52.9004 36.9921 53.2152 37.1664 53.3545 37.4637C53.4548 37.6794 53.4912 37.924 53.4661 38.1599C53.441 38.3907 53.283 38.6077 53.2968 38.8397C53.3131 39.1157 53.6492 39.2261 53.8813 39.1834C53.9804 39.1646 54.0732 39.1245 54.1572 39.0718C54.2011 39.0442 54.3291 38.905 54.3755 38.9062C54.8333 38.915 55.172 39.3352 55.1632 39.778C55.1557 40.138 54.9738 40.4691 54.7719 40.7677C54.5774 41.0549 54.3554 41.3296 54.0694 41.5266C53.6542 41.8113 53.3482 41.731 52.8979 41.7147C52.6922 41.7072 52.4852 41.7749 52.3083 41.8753C51.9508 42.081 51.6924 42.4209 51.419 42.7194C51.1117 43.0556 50.7604 43.2864 50.3591 43.5247C49.7821 43.8672 49.1611 44.1419 48.5164 44.3401C48.6193 44.4454 48.7133 44.5583 48.8011 44.675C49.0947 45.0613 49.3142 45.5029 49.4547 45.9732C49.4935 46.1024 49.5249 46.2329 49.5538 46.3646C50.3327 47.6303 51.6435 48.5698 53.0522 49.0289C54.1899 49.4001 55.4204 49.493 56.607 49.37C57.7347 49.2534 58.8912 48.9887 59.8821 48.418C60.8442 47.8636 61.5617 46.9805 61.7699 45.8754C61.9907 44.7063 61.6972 43.5574 61.2381 42.4824V42.4774ZM43.9292 29.6528C42.9684 30.1771 42.2283 30.9523 41.7429 31.9458C41.6513 32.1339 41.3979 32.1691 41.2299 32.08C41.0417 31.9809 41.0091 31.7426 41.0956 31.567C41.6225 30.487 42.4968 29.5801 43.5504 29.0043C43.7285 28.9065 43.9593 28.9592 44.0634 29.1385C44.1638 29.3091 44.1061 29.555 43.9292 29.6516V29.6528ZM46.6813 31.1292V31.1267C46.6813 31.1267 46.6825 31.1242 46.6838 31.1229C46.6838 31.1254 46.6825 31.1279 46.6813 31.1292ZM46.8017 30.9448C46.8017 30.9448 46.7979 30.9473 46.7967 30.9486C46.813 30.9285 46.8255 30.9185 46.8306 30.926C46.8306 30.926 46.8042 30.9436 46.8017 30.9448ZM53.7546 38.4496C53.7245 38.4496 53.7345 38.4672 53.7546 38.4496V38.4496ZM59.8131 46.4599C59.566 46.8751 58.9175 46.4976 59.1646 46.0811C59.704 45.173 59.7115 44.0102 59.1809 43.097C58.9376 42.6781 59.5861 42.3005 59.8294 42.7182C60.4917 43.8597 60.488 45.3247 59.8131 46.4599Z" fill="black"/>
<path d="M44.3963 36.8195C43.7578 37.3965 42.7267 37.2874 42.2337 36.6025C42.1158 36.4382 41.9076 36.3592 41.7207 36.4683C41.5589 36.5636 41.4673 36.8158 41.5865 36.9813C41.9678 37.5107 42.5273 37.8569 43.1783 37.9346C43.8155 38.0112 44.4565 37.7766 44.9281 37.3514C45.0786 37.2159 45.0661 36.9588 44.9281 36.8208C44.7788 36.6715 44.548 36.6841 44.3975 36.8208L44.3963 36.8195Z" fill="black"/>
<path d="M48.8522 38.5792C49.5597 38.6106 50.2784 38.2907 50.74 37.7551C50.8717 37.6021 50.8905 37.375 50.74 37.2245C50.6045 37.089 50.3424 37.0702 50.2094 37.2245C49.877 37.6096 49.4054 37.8391 48.9011 37.8303C48.4345 37.8216 47.9403 37.5858 47.6493 37.2044C47.5263 37.0439 47.3256 36.9586 47.1362 37.0702C46.9782 37.163 46.8778 37.4214 47.002 37.5832C47.4486 38.1715 48.1071 38.5478 48.8522 38.5805V38.5792Z" fill="black"/>
<path d="M46.361 40.539C46.3484 40.5403 46.3372 40.5416 46.3246 40.5428C46.2682 40.5491 46.2117 40.5528 46.1553 40.5554C46.0286 40.5616 45.9006 40.5591 45.7739 40.5491C45.7413 40.5466 45.7087 40.5428 45.6749 40.539C45.6711 40.539 45.6698 40.539 45.6673 40.539C45.6648 40.539 45.6648 40.539 45.6623 40.539C45.6021 40.529 45.5419 40.519 45.4817 40.5052C45.3575 40.4788 45.2346 40.4437 45.1142 40.4011C44.9285 40.3358 44.6952 40.4751 44.6526 40.6632C44.6049 40.8727 44.7165 41.0558 44.9147 41.1248C45.4716 41.3193 46.0687 41.3506 46.6482 41.249C46.8414 41.2151 46.9681 40.968 46.9104 40.7874C46.8427 40.5792 46.6558 40.4889 46.4488 40.5252C46.4199 40.5303 46.3898 40.5353 46.361 40.5403V40.539Z" fill="black"/>
<path d="M46.1278 38.554C46.0224 38.5126 45.9045 38.4963 45.7916 38.4913C45.5708 38.4812 45.3262 38.5452 45.1456 38.6744C45.0641 38.7333 45.0001 38.7986 44.9738 38.8989C44.9487 38.9892 44.96 39.1084 45.0114 39.1887C45.0628 39.269 45.1406 39.3392 45.2359 39.3605C45.3287 39.3818 45.4441 39.3806 45.5257 39.3229C45.557 39.3003 45.5922 39.2828 45.626 39.2664C45.6511 39.2577 45.6775 39.2514 45.7038 39.2464C45.7389 39.2439 45.7728 39.2439 45.8079 39.2464C45.8405 39.2526 45.8731 39.2627 45.9057 39.2727C45.9396 39.2903 45.9722 39.3091 46.0036 39.3329C46.0688 39.3793 46.1391 39.4094 46.2244 39.4094C46.3159 39.4094 46.4263 39.368 46.4903 39.2991C46.5555 39.2276 46.6044 39.1335 46.6007 39.0331C46.5969 38.9391 46.5655 38.8312 46.4903 38.7672C46.3749 38.6706 46.2683 38.6079 46.129 38.554H46.1278Z" fill="black"/>
<path d="M39.6376 14.3458C39.96 13.9344 40.2861 13.5242 40.6612 13.1605C40.8506 12.9773 41.0513 12.7992 41.2721 12.6537C41.3724 12.5872 41.4803 12.5283 41.5894 12.4781C41.6622 12.4442 41.7588 12.4104 41.7951 12.4154C41.834 12.4204 41.8353 12.4317 41.8491 12.4756C41.8817 12.5772 41.8792 12.7252 41.8742 12.8406C41.8616 13.1166 41.8002 13.385 41.7211 13.6484C41.5568 14.1953 41.3825 14.7497 41.1705 15.2791C40.9133 15.9188 40.6085 16.5385 40.3702 17.187C40.2084 17.626 40.8732 17.858 41.05 17.4303C41.4126 16.556 41.9733 15.7821 42.4788 14.9868C42.973 14.2079 43.4546 13.4277 44.0856 12.749C44.2399 12.5835 44.4055 12.4329 44.5673 12.2762C44.5748 12.2686 44.6174 12.2837 44.5648 12.2736C44.5359 12.2674 44.5146 12.2686 44.4857 12.2598C44.5585 12.2812 44.4456 12.2285 44.4406 12.2272C44.4644 12.2586 44.4644 12.2561 44.4368 12.2197C44.4468 12.2373 44.4544 12.2561 44.4619 12.2749C44.4456 12.1959 44.4757 12.3564 44.4782 12.3752C44.492 12.4806 44.4845 12.3088 44.4795 12.4141C44.4782 12.4467 44.4744 12.4794 44.4719 12.512C44.4707 12.527 44.4606 12.5847 44.4744 12.507C44.4694 12.5358 44.4619 12.5634 44.4556 12.591C44.4418 12.6537 44.428 12.7164 44.413 12.7804C44.265 13.4515 44.1232 14.115 43.9714 14.7874C43.8159 15.4735 43.6704 16.1697 43.4484 16.8382C43.3016 17.2798 43.9815 17.5244 44.1282 17.0816C44.4117 16.2336 44.7416 15.4058 45.1129 14.5917C45.3362 14.1 45.6197 13.6497 45.9458 13.2194C46.1051 13.01 46.2707 12.8055 46.4513 12.6148C46.5341 12.5283 46.6194 12.4417 46.7084 12.3627C46.7386 12.3364 46.7687 12.31 46.8 12.2862C46.8138 12.2749 46.8289 12.2649 46.8427 12.2536C46.9342 12.1846 46.8151 12.2686 46.8715 12.2322C46.9493 12.1833 47.0333 12.1394 47.1199 12.1056C47.1575 12.0905 47.2064 12.078 47.2365 12.0855C47.2892 12.0968 47.1776 12.0729 47.229 12.083C47.2641 12.0893 47.2165 12.0755 47.2102 12.0704C47.2704 12.1181 47.2102 12.0642 47.2064 12.0654C47.1726 12.0767 47.2177 11.9726 47.2064 12.0679C47.2027 12.1018 47.219 12.0893 47.2227 12.1495C47.2265 12.2021 47.2227 12.2536 47.2177 12.305C47.1889 12.5872 47.081 12.8569 47.0057 13.1279C46.933 13.39 46.8815 13.6597 46.8176 13.9244C46.7009 14.4048 46.5792 14.978 46.716 15.466C46.8464 15.9313 47.2641 16.2148 47.7433 16.0656C48.0632 15.9652 48.3002 15.7457 48.5411 15.5224C48.7342 15.3431 48.9261 15.1637 49.1168 14.9818C49.4818 14.6343 49.8456 14.2881 50.2169 13.947C50.5581 13.6321 50.0864 13.084 49.744 13.4001C49.4041 13.7136 49.0679 14.0297 48.7342 14.3496C48.5812 14.4964 48.4282 14.6406 48.2739 14.7861C48.0832 14.9642 47.8951 15.1825 47.6693 15.3167C47.6542 15.3255 47.5326 15.3832 47.5752 15.3681C47.5551 15.3757 47.4548 15.3907 47.4874 15.3895C47.5326 15.387 47.3845 15.3857 47.4749 15.3895C47.431 15.3882 47.4498 15.3832 47.4774 15.3945C47.4184 15.3694 47.4987 15.412 47.4661 15.3895C47.456 15.3832 47.441 15.3644 47.436 15.3531C47.4661 15.4108 47.441 15.3556 47.436 15.3456C47.4322 15.338 47.4071 15.2828 47.4259 15.3343C47.4172 15.3092 47.4109 15.2803 47.4059 15.2552C47.382 15.1398 47.3871 15.0257 47.3921 14.909C47.4146 14.401 47.5388 13.9206 47.6705 13.4264C47.8085 12.9071 48.1133 12.2649 47.8474 11.738C47.6141 11.2752 47.0659 11.3128 46.6696 11.5198C46.2343 11.7456 45.9032 12.1319 45.5946 12.5032C45.2396 12.9297 44.9135 13.39 44.6551 13.883C44.1634 14.8237 43.782 15.8348 43.4459 16.8408C43.6729 16.9223 43.8999 17.0038 44.1257 17.0841C44.3427 16.4306 44.4857 15.7507 44.6375 15.0809C44.8018 14.3534 44.9561 13.6246 45.1117 12.9284C45.1857 12.5973 45.2434 12.2862 45.1079 11.9588C44.9298 11.5298 44.4632 11.4545 44.1069 11.718C43.9062 11.8672 43.7331 12.0667 43.5638 12.2511C43.3794 12.4518 43.2013 12.6587 43.0319 12.872C42.7071 13.2809 42.4135 13.7124 42.1388 14.1564C41.5242 15.1499 40.813 16.1032 40.3639 17.1882C40.591 17.2697 40.818 17.3513 41.0438 17.4316C41.2859 16.7743 41.5969 16.1471 41.8553 15.4961C41.9733 15.2013 42.0623 14.9003 42.1627 14.5992C42.2705 14.2756 42.3884 13.9545 42.47 13.6233C42.6067 13.0752 42.7748 12.1658 42.189 11.8095C41.6032 11.4533 40.8983 11.9939 40.4655 12.3577C39.9211 12.8168 39.4721 13.3812 39.0356 13.9382C38.9151 14.0925 38.9753 14.3358 39.1296 14.4399C39.299 14.5566 39.511 14.5001 39.6314 14.3458H39.6376Z" fill="black"/>
<path d="M54.0432 72.5007C53.7208 72.9121 53.3947 73.3223 53.0196 73.686C52.8302 73.8692 52.6295 74.0473 52.4088 74.1928C52.3084 74.2593 52.2005 74.3182 52.0914 74.3684C52.0187 74.4023 51.9221 74.4361 51.8857 74.4311C51.8468 74.4261 51.8456 74.4148 51.8318 74.3709C51.7992 74.2693 51.8017 74.1213 51.8067 74.0059C51.8192 73.7299 51.8807 73.4615 51.9597 73.1981C52.124 72.6512 52.2984 72.0968 52.5104 71.5674C52.7675 70.9277 53.0723 70.3081 53.3106 69.6595C53.4725 69.2205 52.8077 68.9885 52.6308 69.4162C52.2683 70.2905 51.7076 71.0644 51.2021 71.8597C50.6966 72.6549 50.2262 73.4189 49.5952 74.0975C49.441 74.263 49.2754 74.4136 49.1136 74.5703C49.1061 74.5779 49.0634 74.5628 49.1161 74.5729C49.1449 74.5791 49.1663 74.5779 49.1951 74.5867C49.1224 74.5653 49.2352 74.618 49.2403 74.6193C49.2164 74.5879 49.2164 74.5904 49.244 74.6268C49.234 74.6092 49.2265 74.5904 49.2189 74.5716C49.2352 74.6506 49.2051 74.4901 49.2026 74.4713C49.1888 74.3659 49.1964 74.5377 49.2014 74.4324C49.2026 74.3998 49.2064 74.3671 49.2089 74.3345C49.2102 74.3195 49.2202 74.2618 49.2064 74.3395C49.2114 74.3107 49.2189 74.2831 49.2252 74.2555C49.239 74.1928 49.2528 74.1301 49.2679 74.0661C49.4159 73.395 49.5576 72.7315 49.7094 72.0591C49.8612 71.3868 50.0104 70.6768 50.2325 70.0083C50.3792 69.5667 49.6994 69.3221 49.5526 69.7649C49.2691 70.6129 48.9392 71.4407 48.5679 72.2548C48.3447 72.7465 48.0612 73.1968 47.735 73.6271C47.5757 73.8366 47.4102 74.041 47.2295 74.2317C47.1467 74.3182 47.0615 74.4048 46.9724 74.4838C46.9423 74.5101 46.9122 74.5365 46.8808 74.5603C46.867 74.5716 46.852 74.5816 46.8382 74.5929C46.7466 74.6619 46.8658 74.5779 46.8093 74.6143C46.7316 74.6632 46.6475 74.7071 46.561 74.7409C46.5233 74.756 46.4744 74.7685 46.4443 74.761C46.3916 74.7497 46.5033 74.7736 46.4518 74.7635C46.4167 74.7572 46.4644 74.771 46.4706 74.7761C46.4104 74.7284 46.4706 74.7823 46.4744 74.7811C46.5083 74.7698 46.4631 74.8739 46.4744 74.7786C46.4782 74.7447 46.4619 74.7572 46.4581 74.697C46.4543 74.6444 46.4581 74.5929 46.4631 74.5415C46.492 74.2593 46.5998 73.9896 46.6751 73.7186C46.7504 73.4477 46.7993 73.1868 46.8633 72.9221C46.9799 72.4417 47.1016 71.8685 46.9649 71.3805C46.8281 70.8926 46.4167 70.6317 45.9375 70.7809C45.6177 70.8813 45.3806 71.1008 45.1398 71.3241C44.9466 71.5034 44.7547 71.6828 44.564 71.8647C44.199 72.2122 43.8352 72.5584 43.464 72.8995C43.1228 73.2144 43.5944 73.7625 43.9368 73.4464C44.2793 73.1303 44.6129 72.8168 44.9466 72.4969C45.0996 72.3501 45.2527 72.2059 45.407 72.0604C45.5976 71.8823 45.7858 71.664 46.0116 71.5298C46.0266 71.521 46.1483 71.4633 46.1056 71.4784C46.1257 71.4708 46.2261 71.4558 46.1934 71.457C46.1483 71.4595 46.2963 71.4608 46.206 71.457C46.2499 71.4583 46.2311 71.4633 46.2035 71.452C46.2624 71.4771 46.1821 71.4345 46.2148 71.457C46.2248 71.4633 46.2398 71.4821 46.2449 71.4934C46.2148 71.4357 46.2398 71.4909 46.2449 71.5009C46.2486 71.5085 46.2737 71.5637 46.2549 71.5122C46.2637 71.5373 46.27 71.5662 46.275 71.5913C46.2988 71.7067 46.2938 71.8208 46.2888 71.9375C46.2662 72.4455 46.142 72.9259 46.0103 73.4201C45.8723 73.9394 45.5675 74.5816 45.8334 75.1085C46.0667 75.5713 46.6149 75.5337 47.0113 75.3267C47.4465 75.1009 47.7777 74.7146 48.0863 74.3433C48.4412 73.9168 48.7674 73.4565 49.0258 72.9635C49.5175 72.0227 49.8988 71.0117 50.235 70.0058L49.5551 69.7624C49.3381 70.4159 49.1951 71.0958 49.0433 71.7656C48.879 72.4931 48.7247 73.2219 48.5692 73.9181C48.4952 74.2492 48.4375 74.5603 48.5729 74.8877C48.7511 75.3167 49.2177 75.3919 49.5739 75.1285C49.7746 74.9793 49.9477 74.7798 50.1171 74.5954C50.3015 74.3947 50.4796 74.1878 50.6489 73.9745C50.9738 73.5656 51.2673 73.1341 51.542 72.6901C52.1566 71.6966 52.8679 70.7433 53.3169 69.6583C53.0899 69.5768 52.8628 69.4952 52.6371 69.4149C52.395 70.0722 52.0839 70.6994 51.8255 71.3504C51.7076 71.6452 51.6185 71.9462 51.5182 72.2473C51.4103 72.5709 51.2924 72.892 51.2109 73.2232C51.0741 73.7713 50.9061 74.6807 51.4918 75.037C52.0701 75.3894 52.7826 74.8526 53.2153 74.4888C53.7597 74.0297 54.2088 73.4653 54.6453 72.9083C54.7657 72.754 54.7055 72.5107 54.5512 72.4066C54.3819 72.2899 54.1699 72.3464 54.0495 72.5007H54.0432Z" fill="black"/>
</g>
<defs>
<clipPath id="clip0_1123_115">
<rect width="90" height="91.016" fill="white" transform="translate(0 0.0566406)"/>
</clipPath>
</defs>
</svg>
