<svg width="26" height="24" viewBox="0 0 26 24" fill="none" xmlns="http://www.w3.org/2000/svg">
<path d="M0.334634 10.418L0.334634 13.5846L19.3346 13.5846L19.3346 16.7513L22.5013 16.7513L22.5013 13.5846L25.668 13.5846L25.668 10.418L22.5013 10.418L22.5013 7.2513L19.3346 7.2513L19.3346 10.418L0.334634 10.418ZM16.168 4.08464L19.3346 4.08464L19.3346 7.2513L16.168 7.2513L16.168 4.08464ZM16.168 4.08464L13.0013 4.08463L13.0013 0.917968L16.168 0.917968L16.168 4.08464ZM16.168 19.918L19.3346 19.918L19.3346 16.7513L16.168 16.7513L16.168 19.918ZM16.168 19.918L13.0013 19.918L13.0013 23.0846L16.168 23.0846L16.168 19.918Z" fill="black"/>
</svg>
