<svg width="62" height="48" viewBox="0 0 62 48" fill="none" xmlns="http://www.w3.org/2000/svg">
<path d="M52.2027 4.54518C48.3236 2.73685 44.1236 1.42435 39.7486 0.666016C39.6716 0.667111 39.5982 0.698562 39.5444 0.753516C39.0194 1.71602 38.4069 2.97018 37.9986 3.93268C33.3581 3.23312 28.639 3.23312 23.9986 3.93268C23.5902 2.94102 22.9777 1.71602 22.4236 0.753516C22.3944 0.695183 22.3069 0.666016 22.2194 0.666016C17.8444 1.42435 13.6736 2.73685 9.76522 4.54518C9.73605 4.54518 9.70689 4.57435 9.67772 4.60352C1.74439 16.4743 -0.443115 28.0243 0.636052 39.4577C0.636052 39.516 0.665218 39.5744 0.723551 39.6035C5.97355 43.4535 11.0194 45.7868 16.0069 47.3327C16.0944 47.3619 16.1819 47.3327 16.2111 47.2743C17.3777 45.6702 18.4277 43.9785 19.3319 42.1993C19.3902 42.0827 19.3319 41.966 19.2152 41.9368C17.5527 41.2952 15.9777 40.5369 14.4319 39.6619C14.3152 39.6035 14.3152 39.4285 14.4027 39.341C14.7236 39.1077 15.0444 38.8452 15.3652 38.6119C15.4236 38.5535 15.5111 38.5535 15.5694 38.5827C25.6027 43.1618 36.4236 43.1618 46.3402 38.5827C46.3986 38.5535 46.4861 38.5535 46.5444 38.6119C46.8652 38.8744 47.1861 39.1077 47.5069 39.3702C47.6236 39.4577 47.6236 39.6327 47.4777 39.691C45.961 40.5952 44.3569 41.3243 42.6944 41.966C42.5777 41.9952 42.5486 42.141 42.5777 42.2285C43.5111 44.0077 44.5611 45.6993 45.6986 47.3035C45.7861 47.3327 45.8736 47.3619 45.9611 47.3327C50.9777 45.7868 56.0235 43.4535 61.2735 39.6035C61.3319 39.5744 61.361 39.516 61.361 39.4577C62.6444 26.2452 59.2319 14.7827 52.3194 4.60352C52.2902 4.57435 52.2611 4.54518 52.2027 4.54518ZM20.8486 32.4868C17.8444 32.4868 15.3361 29.716 15.3361 26.3035C15.3361 22.891 17.7861 20.1202 20.8486 20.1202C23.9402 20.1202 26.3902 22.9202 26.3611 26.3035C26.3611 29.716 23.9111 32.4868 20.8486 32.4868ZM41.1777 32.4868C38.1736 32.4868 35.6652 29.716 35.6652 26.3035C35.6652 22.891 38.1152 20.1202 41.1777 20.1202C44.2694 20.1202 46.7194 22.9202 46.6902 26.3035C46.6902 29.716 44.2694 32.4868 41.1777 32.4868Z" fill="black"/>
</svg>
