<svg width="1353" height="852" viewBox="0 0 1353 852" fill="none" xmlns="http://www.w3.org/2000/svg">
<path d="M683.793 352H44.41C42.099 352 39.8105 352.455 37.6754 353.34C35.5402 354.224 33.6002 355.52 31.966 357.154C30.3318 358.789 29.0356 360.729 28.1512 362.864C27.2667 364.999 26.8115 367.287 26.8115 369.598V725.851C26.8115 728.162 27.2667 730.45 28.1511 732.585C29.0355 734.721 30.3318 736.661 31.966 738.295C33.6002 739.929 35.5402 741.225 37.6754 742.11C39.8105 742.994 42.099 743.449 44.41 743.449H683.793C688.46 743.449 692.936 741.595 696.237 738.295C699.537 734.994 701.391 730.518 701.391 725.851V369.598C701.391 364.931 699.537 360.455 696.237 357.154C692.936 353.854 688.46 352 683.793 352Z" fill="#292929"/>
<path d="M677.797 383.102H50.4058V737.015H677.797V383.102Z" fill="white"/>
<path d="M363.565 373.449C367.119 373.449 370 370.568 370 367.014C370 363.461 367.119 360.58 363.565 360.58C360.011 360.58 357.13 363.461 357.13 367.014C357.13 370.568 360.011 373.449 363.565 373.449Z" fill="white"/>
<path d="M498.374 737.015H50.4058V383.102L498.374 737.015Z" fill="#D9D9D9"/>
<path d="M148.574 710.531C181.88 710.531 208.881 683.531 208.881 650.224C208.881 616.918 181.88 589.917 148.574 589.917C115.267 589.917 88.267 616.918 88.267 650.224C88.267 683.531 115.267 710.531 148.574 710.531Z" fill="#FFC629"/>
<path d="M161.999 695.551C147.162 695.551 132.658 691.151 120.322 682.908C107.986 674.665 98.3709 662.949 92.6932 649.242C87.0154 635.535 85.5299 620.452 88.4244 605.9C91.3189 591.348 98.4634 577.982 108.955 567.491C119.446 557 132.812 549.855 147.364 546.96C161.916 544.066 176.999 545.552 190.706 551.229C204.413 556.907 216.129 566.522 224.372 578.858C232.615 591.195 237.015 605.698 237.015 620.535C237.015 630.386 235.074 640.141 231.304 649.242C227.534 658.343 222.009 666.613 215.043 673.579C208.077 680.545 199.807 686.07 190.706 689.84C181.605 693.61 171.85 695.551 161.999 695.551ZM161.999 546.5C147.356 546.5 133.042 550.842 120.867 558.977C108.692 567.112 99.2026 578.675 93.5991 592.203C87.9955 605.731 86.5294 620.617 89.386 634.978C92.2427 649.34 99.2938 662.532 109.648 672.886C120.002 683.24 133.194 690.291 147.555 693.147C161.916 696.004 176.803 694.538 190.331 688.934C203.859 683.331 215.422 673.842 223.557 661.667C231.692 649.492 236.034 635.178 236.034 620.535C236.034 610.812 234.119 601.185 230.398 592.203C226.678 583.22 221.224 575.059 214.349 568.184C207.475 561.309 199.313 555.856 190.331 552.135C181.348 548.415 171.721 546.5 161.999 546.5Z" fill="#3F3D56"/>
<path d="M542.893 448.282H518.401V472.773H542.893V448.282Z" fill="#6C63FF"/>
<path d="M719.007 730.58H657.778V726.168C657.778 726.053 657.755 725.94 657.711 725.833C657.667 725.727 657.603 725.631 657.522 725.55C657.44 725.468 657.344 725.404 657.238 725.36C657.132 725.316 657.018 725.293 656.903 725.293H635.91C635.795 725.293 635.681 725.316 635.575 725.36C635.469 725.404 635.373 725.468 635.292 725.55C635.21 725.631 635.146 725.727 635.102 725.833C635.058 725.939 635.035 726.053 635.035 726.168V730.58H621.915V726.168C621.915 726.053 621.892 725.94 621.848 725.833C621.804 725.727 621.74 725.631 621.659 725.55C621.577 725.468 621.481 725.404 621.375 725.36C621.269 725.316 621.155 725.293 621.04 725.293H600.047C599.932 725.293 599.819 725.316 599.713 725.36C599.606 725.404 599.51 725.468 599.429 725.55C599.348 725.631 599.283 725.727 599.239 725.833C599.195 725.94 599.173 726.053 599.173 726.168V730.58H586.052V726.168C586.052 726.053 586.029 725.94 585.985 725.833C585.942 725.727 585.877 725.631 585.796 725.55C585.715 725.468 585.618 725.404 585.512 725.36C585.406 725.316 585.292 725.293 585.177 725.293H564.184C564.069 725.293 563.956 725.316 563.85 725.36C563.743 725.404 563.647 725.468 563.566 725.55C563.485 725.631 563.42 725.727 563.376 725.833C563.332 725.94 563.31 726.053 563.31 726.168V730.58H550.189V726.168C550.189 726.053 550.167 725.94 550.123 725.833C550.079 725.727 550.014 725.631 549.933 725.55C549.852 725.468 549.755 725.404 549.649 725.36C549.543 725.316 549.429 725.293 549.314 725.293H528.322C528.207 725.293 528.093 725.316 527.987 725.36C527.881 725.404 527.784 725.468 527.703 725.55C527.622 725.631 527.557 725.727 527.513 725.833C527.469 725.939 527.447 726.053 527.447 726.168V730.58H514.326V726.168C514.326 726.053 514.304 725.94 514.26 725.833C514.216 725.727 514.151 725.631 514.07 725.55C513.989 725.468 513.892 725.404 513.786 725.36C513.68 725.316 513.566 725.293 513.452 725.293H492.459C492.344 725.293 492.23 725.316 492.124 725.36C492.018 725.404 491.921 725.468 491.84 725.55C491.759 725.631 491.694 725.727 491.651 725.833C491.607 725.94 491.584 726.053 491.584 726.168V730.58H478.463V726.168C478.463 726.053 478.441 725.94 478.397 725.833C478.353 725.727 478.288 725.631 478.207 725.55C478.126 725.468 478.03 725.404 477.923 725.36C477.817 725.316 477.704 725.293 477.589 725.293H456.596C456.481 725.293 456.367 725.316 456.261 725.36C456.155 725.404 456.058 725.468 455.977 725.55C455.896 725.631 455.832 725.727 455.788 725.833C455.744 725.94 455.721 726.053 455.721 726.168V730.58H442.601V726.168C442.601 726.053 442.578 725.94 442.534 725.833C442.49 725.727 442.426 725.631 442.344 725.55C442.263 725.468 442.167 725.404 442.061 725.36C441.954 725.316 441.841 725.293 441.726 725.293H277.281C277.167 725.293 277.053 725.316 276.947 725.36C276.84 725.404 276.744 725.468 276.663 725.55C276.582 725.631 276.517 725.727 276.473 725.833C276.429 725.94 276.407 726.053 276.407 726.168V730.58H263.286V726.168C263.286 726.053 263.263 725.94 263.219 725.833C263.176 725.727 263.111 725.631 263.03 725.55C262.949 725.468 262.852 725.404 262.746 725.36C262.64 725.316 262.526 725.293 262.411 725.293H241.419C241.304 725.293 241.19 725.316 241.084 725.36C240.978 725.404 240.881 725.468 240.8 725.55C240.719 725.631 240.654 725.727 240.61 725.833C240.566 725.94 240.544 726.053 240.544 726.168V730.58H227.423V726.168C227.423 726.053 227.401 725.94 227.357 725.833C227.313 725.727 227.248 725.631 227.167 725.55C227.086 725.468 226.989 725.404 226.883 725.36C226.777 725.316 226.663 725.293 226.549 725.293H205.556C205.441 725.293 205.327 725.316 205.221 725.36C205.115 725.404 205.018 725.468 204.937 725.55C204.856 725.631 204.791 725.727 204.747 725.833C204.703 725.94 204.681 726.053 204.681 726.168V730.58H191.56V726.168C191.56 726.053 191.538 725.94 191.494 725.833C191.45 725.727 191.385 725.631 191.304 725.55C191.223 725.468 191.126 725.404 191.02 725.36C190.914 725.316 190.8 725.293 190.686 725.293H169.693C169.578 725.293 169.464 725.316 169.358 725.36C169.252 725.404 169.155 725.468 169.074 725.55C168.993 725.631 168.928 725.727 168.885 725.833C168.841 725.94 168.818 726.053 168.818 726.168V730.58H155.697V726.168C155.697 726.053 155.675 725.94 155.631 725.833C155.587 725.727 155.522 725.631 155.441 725.55C155.36 725.468 155.264 725.404 155.157 725.36C155.051 725.316 154.938 725.293 154.823 725.293H133.83C133.715 725.293 133.601 725.316 133.495 725.36C133.389 725.404 133.293 725.468 133.211 725.55C133.13 725.631 133.066 725.727 133.022 725.833C132.978 725.94 132.955 726.053 132.955 726.168V730.58H119.835V726.168C119.835 726.053 119.812 725.94 119.768 725.833C119.724 725.727 119.66 725.631 119.578 725.55C119.497 725.468 119.401 725.404 119.295 725.36C119.188 725.316 119.075 725.293 118.96 725.293H97.9669C97.7349 725.293 97.5124 725.386 97.3484 725.55C97.1844 725.714 97.0922 725.936 97.0922 726.168V730.58H83.9716V726.168C83.9716 726.053 83.949 725.94 83.9051 725.833C83.8611 725.727 83.7967 725.631 83.7155 725.55C83.6342 725.468 83.5378 725.404 83.4317 725.36C83.3256 725.316 83.2118 725.293 83.097 725.293H62.104C61.8721 725.293 61.6496 725.386 61.4855 725.55C61.3215 725.714 61.2293 725.936 61.2293 726.168V730.58H20.9929C15.4252 730.58 10.0856 732.791 6.14868 736.728C2.21176 740.665 0 746.005 0 751.573V761.065C1.32608e-05 766.633 2.21176 771.972 6.14868 775.909C10.0856 779.846 15.4252 782.058 20.9929 782.058H719.007C724.575 782.058 729.914 779.846 733.851 775.909C737.788 771.972 740 766.633 740 761.065V751.573C740 748.816 739.457 746.086 738.402 743.539C737.347 740.992 735.801 738.678 733.851 736.728C731.902 734.779 729.588 733.233 727.041 732.178C724.494 731.123 721.764 730.58 719.007 730.58Z" fill="#292929"/>
<path d="M443.812 289.319C505.967 249.197 591.573 264.786 652.131 307.297C671.892 321.36 690.043 337.56 706.255 355.602C715.708 365.974 724.671 376.863 733.243 388.126C735.355 390.889 737.457 393.68 739.518 396.499C740.929 398.405 742.328 400.324 743.715 402.256C761.1 426.428 777.039 451.857 792.643 477.055C831.595 539.959 871.562 604.734 930.912 648.898C943.14 657.995 960.199 666.186 972.727 657.5C983.598 649.957 984.064 634.095 981.59 621.096C972.392 572.936 939.212 533.027 903.964 498.958C868.716 464.889 829.695 433.654 803.062 392.487C776.428 351.32 764.26 296.361 787.588 253.246C807.693 216.091 850.949 195.25 893.171 194.279C935.39 193.318 976.409 209.733 1012.13 232.273C1047.84 254.823 1079.25 283.435 1112.03 310.076C1131.79 326.149 1159.37 342.098 1180.9 328.489C1199.09 316.989 1200.51 289.381 1189.67 270.792C1178.83 252.204 1159.49 240.522 1140.94 229.627C1083.36 195.791 1025.77 161.957 968.188 128.127C950.521 117.757 932.469 107.055 919.429 91.2419C906.384 75.4381 899.144 53.2262 906.333 34.035C913.426 15.1225 933.237 3.11335 953.28 0.607117C973.31 -1.89333 993.512 3.66194 1012.25 11.1868C1082.46 39.3928 1247.8 223.921 1291.86 255.469C1320.18 275.732 1349.93 301.384 1352.79 336.091C1356.36 379.298 1313.38 415.154 1270.24 419.345C1227.1 423.549 1185.29 404.788 1146.75 384.953C1108.21 365.118 1068.87 343.249 1025.61 340.496C982.352 337.743 933.815 360.874 923.56 402.999C914.642 439.654 937.314 477.478 966.846 500.932C989.962 519.295 1017.09 531.524 1043.3 545.275C1050.57 549.081 1057.77 553.018 1064.8 557.226C1082.78 568.02 1099.59 580.659 1114.95 594.937C1131.07 609.902 1145.55 626.554 1158.13 644.607C1168.16 658.991 1176.92 674.228 1184.3 690.141C1185.42 692.572 1186.51 695.037 1187.57 697.535C1188.57 699.924 1189.54 702.344 1190.47 704.788C1202.49 736.48 1207.18 771.996 1191.81 801.582C1176.49 831.088 1143.29 848.559 1110.14 850.982C1090.96 852.126 1071.75 849.587 1053.53 843.501C1040.13 839.148 1027.16 833.572 1014.78 826.843C957.387 796.03 911.95 747.169 870.453 696.938C828.967 646.711 789.901 593.826 740.649 551.189C691.4 508.543 629.683 476.301 564.542 476.791C499.403 477.272 432.253 516.971 413.752 579.441C386.786 532.963 368.551 479.98 370.959 426.301C373.366 372.623 398.675 318.461 443.812 289.319Z" fill="#2C589B"/>
<path d="M696.528 462.98C700.48 462.98 703.684 459.775 703.684 455.822C703.684 451.868 700.48 448.664 696.528 448.664C692.575 448.664 689.371 451.868 689.371 455.822C689.371 459.775 692.575 462.98 696.528 462.98Z" fill="#4BA68D"/>
<path d="M426.826 473.215C432.937 473.215 437.891 468.26 437.891 462.147C437.891 456.035 432.937 451.08 426.826 451.08C420.715 451.08 415.761 456.035 415.761 462.147C415.761 468.26 420.715 473.215 426.826 473.215Z" fill="#B82E78"/>
<path d="M1226.55 375.289C1228.81 375.289 1230.64 373.458 1230.64 371.2C1230.64 368.941 1228.81 367.11 1226.55 367.11C1224.29 367.11 1222.46 368.941 1222.46 371.2C1222.46 373.458 1224.29 375.289 1226.55 375.289Z" fill="#4BA68D"/>
<path d="M1143.83 155.51C1146.09 155.51 1147.92 153.679 1147.92 151.421C1147.92 149.162 1146.09 147.332 1143.83 147.332C1141.58 147.332 1139.75 149.162 1139.75 151.421C1139.75 153.679 1141.58 155.51 1143.83 155.51Z" fill="#4BA68D"/>
<path d="M1038.64 554.798C1039.8 551.447 1041.36 548.249 1043.3 545.275C1050.57 549.082 1057.78 553.018 1064.8 557.226C1082.78 568.021 1099.59 580.659 1114.95 594.937C1108.76 603.342 1099.77 609.25 1089.61 611.59C1079.44 613.929 1068.77 612.545 1059.54 607.688C1050.31 602.831 1043.12 594.824 1039.28 585.119C1035.45 575.415 1035.22 564.657 1038.64 554.798Z" fill="#B82E78"/>
<path d="M517.249 421.716C519.558 421.716 521.43 419.844 521.43 417.534C521.43 415.224 519.558 413.352 517.249 413.352C514.94 413.352 513.068 415.224 513.068 417.534C513.068 419.844 514.94 421.716 517.249 421.716Z" fill="#F0F0F0"/>
<path d="M1029.51 112.288C1031.82 112.288 1033.69 110.415 1033.69 108.106C1033.69 105.796 1031.82 103.923 1029.51 103.923C1027.2 103.923 1025.33 105.796 1025.33 108.106C1025.33 110.415 1027.2 112.288 1029.51 112.288Z" fill="#F0F0F0"/>
<path d="M991.867 37.7917C994.176 37.7917 996.048 35.9192 996.048 33.6095C996.048 31.2997 994.176 29.4272 991.867 29.4272C989.558 29.4272 987.686 31.2997 987.686 33.6095C987.686 35.9192 989.558 37.7917 991.867 37.7917Z" fill="#F0F0F0"/>
<path d="M1287.93 315.479C1290.24 315.479 1292.11 313.607 1292.11 311.297C1292.11 308.987 1290.24 307.115 1287.93 307.115C1285.62 307.115 1283.75 308.987 1283.75 311.297C1283.75 313.607 1285.62 315.479 1287.93 315.479Z" fill="#F0F0F0"/>
<path d="M1068.3 321.488C1070.61 321.488 1072.48 319.616 1072.48 317.306C1072.48 314.996 1070.61 313.124 1068.3 313.124C1065.99 313.124 1064.12 314.996 1064.12 317.306C1064.12 319.616 1065.99 321.488 1068.3 321.488Z" fill="#F0F0F0"/>
<path d="M951.755 720.392C954.064 720.392 955.936 718.52 955.936 716.21C955.936 713.9 954.064 712.028 951.755 712.028C949.446 712.028 947.574 713.9 947.574 716.21C947.574 718.52 949.446 720.392 951.755 720.392Z" fill="#F0F0F0"/>
<path d="M820.366 328.081C822.675 328.081 824.547 326.209 824.547 323.899C824.547 321.589 822.675 319.717 820.366 319.717C818.057 319.717 816.185 321.589 816.185 323.899C816.185 326.209 818.057 328.081 820.366 328.081Z" fill="#F0F0F0"/>
<path d="M814.497 248.999C816.806 248.999 818.678 247.127 818.678 244.817C818.678 242.507 816.806 240.635 814.497 240.635C812.188 240.635 810.316 242.507 810.316 244.817C810.316 247.127 812.188 248.999 814.497 248.999Z" fill="#F0F0F0"/>
<path d="M1043.7 733.998C1050.6 714.039 1062.13 696.005 1077.37 681.382C1079.38 679.457 1081.44 677.596 1083.57 675.8C1104.63 657.984 1130.66 647.092 1158.13 644.606C1168.16 658.991 1176.92 674.228 1184.3 690.141C1185.42 692.572 1186.51 695.037 1187.57 697.535C1188.57 699.924 1189.54 702.344 1190.47 704.787C1202.49 736.48 1207.18 771.996 1191.81 801.582C1176.49 831.088 1143.29 848.559 1110.14 850.982C1090.96 852.126 1071.75 849.587 1053.53 843.501C1043.66 825.992 1037.86 806.485 1036.56 786.427C1036.39 783.902 1036.31 781.376 1036.29 778.837C1036.18 763.577 1038.69 748.411 1043.7 733.998Z" fill="#803286"/>
<path d="M988.364 707.5C995.08 688.144 1020.2 676.751 1059.12 675.403C1066.91 675.129 1075.47 678.369 1083.57 675.801C1122.85 663.342 1158.48 671.483 1187.57 697.535C1188.57 699.924 1189.54 702.344 1190.47 704.788C1190.08 704.643 1189.69 704.507 1189.3 704.372C1149.99 690.727 1110.98 682.763 1077.37 681.382C1071.16 681.132 1063.75 677.538 1059.32 681.304C1023.79 711.547 999.764 698.875 993.938 709.435C985.429 724.858 1000.52 748.89 1027.84 772.033C1030.55 774.325 1033.36 776.593 1036.29 778.837C1036.31 781.376 1036.39 783.903 1036.56 786.427C1032.15 783.169 1027.98 779.873 1024.03 776.54C994.315 751.367 981.652 726.846 988.364 707.5Z" fill="#E4E4E4"/>
<path d="M1135.57 844.59C1137.88 844.59 1139.76 842.718 1139.76 840.408C1139.76 838.098 1137.88 836.226 1135.57 836.226C1133.27 836.226 1131.39 838.098 1131.39 840.408C1131.39 842.718 1133.27 844.59 1135.57 844.59Z" fill="#F0F0F0"/>
<path d="M1061.6 790.799C1063.91 790.799 1065.78 788.927 1065.78 786.617C1065.78 784.307 1063.91 782.435 1061.6 782.435C1059.29 782.435 1057.42 784.307 1057.42 786.617C1057.42 788.927 1059.29 790.799 1061.6 790.799Z" fill="#F0F0F0"/>
<path d="M1118.2 802.165C1140.65 802.165 1158.86 783.956 1158.86 761.495C1158.86 739.033 1140.65 720.825 1118.2 720.825C1095.74 720.825 1077.54 739.033 1077.54 761.495C1077.54 783.956 1095.74 802.165 1118.2 802.165Z" fill="#F0F0F0"/>
<path opacity="0.3" d="M479.375 311.888C488.88 312.335 508.538 317.056 529.84 323.16C551.129 329.27 574.222 336.724 597.02 344.096C636.928 356.992 676.835 369.884 716.74 382.772C722.226 384.541 727.727 386.326 733.243 388.126C735.355 390.889 737.457 393.68 739.518 396.499C734.669 394.785 729.801 393.126 724.948 391.545C704.21 384.804 686.215 380.359 666.089 374.226C635.116 364.796 602.441 352.412 570.75 340.88C539.062 329.339 502.706 316.916 479.375 311.888Z" fill="#F0F0F0"/>
<path d="M1145.19 669.891C1147.5 669.891 1149.37 668.018 1149.37 665.709C1149.37 663.399 1147.5 661.526 1145.19 661.526C1142.88 661.526 1141 663.399 1141 665.709C1141 668.018 1142.88 669.891 1145.19 669.891Z" fill="#F0F0F0"/>
</svg>
